<svg xmlns="http://www.w3.org/2000/svg" viewBox="0 0 512 512" role="img" aria-label="Fire Scorer App Icon">
  <defs>
    <linearGradient id="bg" x1="0" x2="1" y1="0" y2="1">
      <stop offset="0%" stop-color="#204134"/>
      <stop offset="100%" stop-color="#1b2a35"/>
    </linearGradient>
    <linearGradient id="flameOuter" x1="0" x2="0" y1="0" y2="1">
      <stop offset="0%" stop-color="#ffba57"/>
      <stop offset="100%" stop-color="#d65d24"/>
    </linearGradient>
    <linearGradient id="flameInner" x1="0" x2="0" y1="0" y2="1">
      <stop offset="0%" stop-color="#fff0a8"/>
      <stop offset="100%" stop-color="#ff9541"/>
    </linearGradient>
  </defs>
  <rect x="24" y="24" width="464" height="464" rx="108" fill="url(#bg)"/>
  <path d="M98 360h316" stroke="#78b09a" stroke-width="22" stroke-linecap="round" opacity="0.45"/>
  <path d="M256 90c28 48 44 73 44 108 0 22-9 40-24 55 40-2 76 30 76 79 0 53-43 96-96 96s-96-43-96-96c0-44 28-74 64-84-8-16-12-30-12-48 0-36 17-66 44-110z" fill="url(#flameOuter)"/>
  <path d="M256 170c14 24 22 36 22 54 0 11-5 20-12 27 20-1 38 16 38 40 0 27-22 48-48 48s-48-21-48-48c0-23 15-39 32-44-4-8-6-15-6-24 0-18 9-33 22-53z" fill="url(#flameInner)"/>
  <g stroke="#e7f3ec" stroke-width="16" stroke-linecap="round">
    <path d="M168 388l40-36"/>
    <path d="M206 416l46-40"/>
    <path d="M268 418l52-46"/>
    <path d="M322 398l26-24"/>
  </g>
</svg>
